<svg width="498" height="320" viewBox="0 0 498 320" fill="none" xmlns="http://www.w3.org/2000/svg">
    <path d="M88.0679 273.461H91.3042L92.6797 275.217L94.4839 277.288L97.2591 280.711H93.6344L91.6926 278.389L90.5437 276.738L88.0679 273.461ZM97.3724 271.131C97.3724 272.954 97.0218 274.5 96.3206 275.767C95.6193 277.035 94.67 277.998 93.4726 278.656C92.2805 279.314 90.9428 279.643 89.4595 279.643C87.9708 279.643 86.6304 279.311 85.4383 278.648C84.2463 277.984 83.2996 277.021 82.5984 275.759C81.9026 274.492 81.5547 272.949 81.5547 271.131C81.5547 269.308 81.9026 267.763 82.5984 266.495C83.2996 265.228 84.2463 264.265 85.4383 263.607C86.6304 262.949 87.9708 262.62 89.4595 262.62C90.9428 262.62 92.2805 262.949 93.4726 263.607C94.67 264.265 95.6193 265.228 96.3206 266.495C97.0218 267.763 97.3724 269.308 97.3724 271.131ZM93.2784 271.131C93.2784 270.052 93.1247 269.141 92.8172 268.397C92.5151 267.652 92.0782 267.088 91.5065 266.706C90.9401 266.323 90.2578 266.131 89.4595 266.131C88.6666 266.131 87.9842 266.323 87.4125 266.706C86.8407 267.088 86.4011 267.652 86.0937 268.397C85.7916 269.141 85.6406 270.052 85.6406 271.131C85.6406 272.21 85.7916 273.122 86.0937 273.866C86.4011 274.61 86.8407 275.174 87.4125 275.557C87.9842 275.94 88.6666 276.131 89.4595 276.131C90.2578 276.131 90.9401 275.94 91.5065 275.557C92.0782 275.174 92.5151 274.61 92.8172 273.866C93.1247 273.122 93.2784 272.21 93.2784 271.131Z" fill="white"/>
    <path d="M109.757 262.846H113.754V273.534C113.754 274.769 113.46 275.846 112.872 276.763C112.285 277.674 111.465 278.381 110.413 278.882C109.361 279.379 108.139 279.627 106.748 279.627C105.34 279.627 104.11 279.379 103.058 278.882C102.006 278.381 101.189 277.674 100.607 276.763C100.024 275.846 99.7329 274.769 99.7329 273.534V262.846H103.738V273.186C103.738 273.758 103.862 274.268 104.11 274.716C104.364 275.163 104.717 275.514 105.17 275.767C105.623 276.021 106.149 276.148 106.748 276.148C107.346 276.148 107.87 276.021 108.317 275.767C108.77 275.514 109.124 275.163 109.377 274.716C109.631 274.268 109.757 273.758 109.757 273.186V262.846Z" fill="white"/>
    <path d="M116.265 279.416V262.846H123.109C124.35 262.846 125.421 263.07 126.322 263.518C127.228 263.96 127.926 264.597 128.417 265.427C128.908 266.252 129.153 267.231 129.153 268.364C129.153 269.513 128.903 270.489 128.401 271.293C127.899 272.091 127.187 272.701 126.265 273.122C125.343 273.537 124.25 273.745 122.988 273.745H118.659V270.589H122.244C122.848 270.589 123.352 270.511 123.757 270.355C124.167 270.193 124.477 269.95 124.687 269.626C124.898 269.297 125.003 268.877 125.003 268.364C125.003 267.852 124.898 267.428 124.687 267.094C124.477 266.754 124.167 266.501 123.757 266.333C123.347 266.161 122.842 266.074 122.244 266.074H120.27V279.416H116.265ZM125.593 271.843L129.72 279.416H125.351L121.305 271.843H125.593Z" fill="white"/>
    <path d="M135.355 262.846V279.416H131.35V262.846H135.355Z" fill="white"/>
    <path d="M137.869 279.416V262.846H141.874V276.164H148.768V279.416H137.869Z" fill="white"/>
    <path d="M154.846 262.846V279.416H150.841V262.846H154.846Z" fill="white"/>
    <path d="M166.317 267.814C166.263 267.221 166.023 266.759 165.597 266.43C165.176 266.096 164.575 265.929 163.792 265.929C163.275 265.929 162.843 265.996 162.498 266.131C162.153 266.266 161.894 266.452 161.721 266.689C161.549 266.921 161.46 267.188 161.454 267.49C161.443 267.738 161.492 267.957 161.6 268.146C161.713 268.334 161.875 268.502 162.085 268.647C162.301 268.788 162.56 268.912 162.862 269.02C163.164 269.127 163.504 269.222 163.881 269.303L165.305 269.626C166.125 269.804 166.848 270.042 167.474 270.338C168.105 270.635 168.634 270.988 169.06 271.398C169.491 271.808 169.817 272.28 170.039 272.814C170.26 273.348 170.373 273.947 170.378 274.61C170.373 275.657 170.109 276.555 169.586 277.305C169.062 278.054 168.31 278.629 167.328 279.028C166.352 279.427 165.173 279.627 163.792 279.627C162.406 279.627 161.198 279.419 160.168 279.004C159.138 278.588 158.337 277.957 157.765 277.11C157.193 276.264 156.899 275.193 156.883 273.898H160.718C160.75 274.432 160.893 274.877 161.147 275.233C161.4 275.589 161.748 275.859 162.19 276.042C162.638 276.226 163.156 276.318 163.744 276.318C164.283 276.318 164.742 276.245 165.119 276.099C165.502 275.953 165.796 275.751 166.001 275.492C166.206 275.233 166.311 274.937 166.317 274.602C166.311 274.289 166.214 274.022 166.026 273.801C165.837 273.575 165.546 273.381 165.152 273.219C164.763 273.051 164.267 272.898 163.663 272.758L161.932 272.353C160.497 272.024 159.367 271.493 158.541 270.759C157.716 270.02 157.306 269.022 157.312 267.765C157.306 266.741 157.581 265.843 158.137 265.071C158.693 264.3 159.461 263.698 160.443 263.267C161.425 262.835 162.544 262.62 163.801 262.62C165.084 262.62 166.198 262.838 167.142 263.275C168.091 263.707 168.828 264.313 169.351 265.095C169.874 265.878 170.141 266.784 170.152 267.814H166.317Z" fill="white"/>
    <path d="M172.401 279.416V262.846H176.406V269.497H182.936V262.846H186.932V279.416H182.936V272.758H176.406V279.416H172.401Z" fill="white"/>
    <path d="M203.296 267.814C203.242 267.221 203.002 266.759 202.576 266.43C202.155 266.096 201.554 265.929 200.772 265.929C200.254 265.929 199.823 265.996 199.477 266.131C199.132 266.266 198.873 266.452 198.701 266.689C198.528 266.921 198.439 267.188 198.434 267.49C198.423 267.738 198.471 267.957 198.579 268.146C198.693 268.334 198.854 268.502 199.065 268.647C199.28 268.788 199.539 268.912 199.841 269.02C200.143 269.127 200.483 269.222 200.861 269.303L202.285 269.626C203.105 269.804 203.828 270.042 204.453 270.338C205.084 270.635 205.613 270.988 206.039 271.398C206.471 271.808 206.797 272.28 207.018 272.814C207.239 273.348 207.352 273.947 207.358 274.61C207.352 275.657 207.088 276.555 206.565 277.305C206.042 278.054 205.289 278.629 204.308 279.028C203.331 279.427 202.153 279.627 200.772 279.627C199.386 279.627 198.177 279.419 197.147 279.004C196.117 278.588 195.316 277.957 194.744 277.11C194.172 276.264 193.878 275.193 193.862 273.898H197.697C197.73 274.432 197.873 274.877 198.126 275.233C198.38 275.589 198.728 275.859 199.17 276.042C199.618 276.226 200.135 276.318 200.723 276.318C201.263 276.318 201.721 276.245 202.099 276.099C202.482 275.953 202.776 275.751 202.981 275.492C203.186 275.233 203.291 274.937 203.296 274.602C203.291 274.289 203.194 274.022 203.005 273.801C202.816 273.575 202.525 273.381 202.131 273.219C201.743 273.051 201.247 272.898 200.642 272.758L198.911 272.353C197.476 272.024 196.346 271.493 195.521 270.759C194.696 270.02 194.286 269.022 194.291 267.765C194.286 266.741 194.561 265.843 195.116 265.071C195.672 264.3 196.441 263.698 197.422 263.267C198.404 262.835 199.523 262.62 200.78 262.62C202.064 262.62 203.178 262.838 204.122 263.275C205.071 263.707 205.807 264.313 206.33 265.095C206.854 265.878 207.121 266.784 207.131 267.814H203.296Z" fill="white"/>
    <path d="M225.02 271.131C225.02 272.954 224.67 274.5 223.968 275.767C223.267 277.035 222.318 277.998 221.12 278.656C219.928 279.314 218.591 279.643 217.107 279.643C215.619 279.643 214.278 279.311 213.086 278.648C211.894 277.984 210.948 277.021 210.246 275.759C209.55 274.492 209.203 272.949 209.203 271.131C209.203 269.308 209.55 267.763 210.246 266.495C210.948 265.228 211.894 264.265 213.086 263.607C214.278 262.949 215.619 262.62 217.107 262.62C218.591 262.62 219.928 262.949 221.12 263.607C222.318 264.265 223.267 265.228 223.968 266.495C224.67 267.763 225.02 269.308 225.02 271.131ZM220.926 271.131C220.926 270.052 220.773 269.141 220.465 268.397C220.163 267.652 219.726 267.088 219.154 266.706C218.588 266.323 217.906 266.131 217.107 266.131C216.314 266.131 215.632 266.323 215.06 266.706C214.489 267.088 214.049 267.652 213.742 268.397C213.439 269.141 213.288 270.052 213.288 271.131C213.288 272.21 213.439 273.122 213.742 273.866C214.049 274.61 214.489 275.174 215.06 275.557C215.632 275.94 216.314 276.131 217.107 276.131C217.906 276.131 218.588 275.94 219.154 275.557C219.726 275.174 220.163 274.61 220.465 273.866C220.773 273.122 220.926 272.21 220.926 271.131Z" fill="white"/>
    <path d="M227.359 279.416V262.846H231.364V269.497H237.893V262.846H241.89V279.416H237.893V272.758H231.364V279.416H227.359Z" fill="white"/>
    <path d="M247.986 279.416H243.682L249.273 262.846H254.605L260.195 279.416H255.891L251.999 267.021H251.87L247.986 279.416ZM247.412 272.895H256.409V275.937H247.412V272.895Z" fill="white"/>
    <path d="M270.424 267.814C270.37 267.221 270.13 266.759 269.704 266.43C269.283 266.096 268.682 265.929 267.9 265.929C267.382 265.929 266.951 265.996 266.605 266.131C266.26 266.266 266.001 266.452 265.829 266.689C265.656 266.921 265.567 267.188 265.562 267.49C265.551 267.738 265.599 267.957 265.707 268.146C265.821 268.334 265.982 268.502 266.193 268.647C266.409 268.788 266.667 268.912 266.969 269.02C267.272 269.127 267.611 269.222 267.989 269.303L269.413 269.626C270.233 269.804 270.956 270.042 271.581 270.338C272.212 270.635 272.741 270.988 273.167 271.398C273.599 271.808 273.925 272.28 274.146 272.814C274.367 273.348 274.481 273.947 274.486 274.61C274.481 275.657 274.216 276.555 273.693 277.305C273.17 278.054 272.417 278.629 271.436 279.028C270.459 279.427 269.281 279.627 267.9 279.627C266.514 279.627 265.305 279.419 264.275 279.004C263.245 278.588 262.444 277.957 261.872 277.11C261.3 276.264 261.007 275.193 260.99 273.898H264.825C264.858 274.432 265.001 274.877 265.254 275.233C265.508 275.589 265.856 275.859 266.298 276.042C266.746 276.226 267.263 276.318 267.851 276.318C268.391 276.318 268.849 276.245 269.227 276.099C269.61 275.953 269.904 275.751 270.109 275.492C270.314 275.233 270.419 274.937 270.424 274.602C270.419 274.289 270.322 274.022 270.133 273.801C269.944 273.575 269.653 273.381 269.259 273.219C268.871 273.051 268.375 272.898 267.77 272.758L266.039 272.353C264.604 272.024 263.474 271.493 262.649 270.759C261.824 270.02 261.414 269.022 261.419 267.765C261.414 266.741 261.689 265.843 262.244 265.071C262.8 264.3 263.569 263.698 264.55 263.267C265.532 262.835 266.651 262.62 267.908 262.62C269.192 262.62 270.306 262.838 271.25 263.275C272.199 263.707 272.935 264.313 273.458 265.095C273.982 265.878 274.249 266.784 274.259 267.814H270.424Z" fill="white"/>
    <path d="M280.514 262.846V279.416H276.509V262.846H280.514Z" fill="white"/>
    <path d="M289.153 279.416H283.028V262.846H289.145C290.833 262.846 292.287 263.178 293.506 263.841C294.73 264.499 295.674 265.449 296.337 266.689C297.001 267.925 297.333 269.402 297.333 271.123C297.333 272.849 297.001 274.333 296.337 275.573C295.679 276.814 294.738 277.766 293.514 278.429C292.289 279.087 290.836 279.416 289.153 279.416ZM287.033 276.002H288.999C289.927 276.002 290.712 275.846 291.353 275.533C292.001 275.214 292.489 274.699 292.818 273.987C293.152 273.27 293.319 272.315 293.319 271.123C293.319 269.931 293.152 268.982 292.818 268.275C292.483 267.563 291.99 267.051 291.337 266.738C290.69 266.42 289.892 266.261 288.942 266.261H287.033V276.002Z" fill="white"/>
    <path d="M302.276 279.416H297.972L303.563 262.846H308.894L314.485 279.416H310.181L306.289 267.021H306.16L302.276 279.416ZM301.702 272.895H310.699V275.937H301.702V272.895Z" fill="white"/>
    <path d="M327.289 279.416H321.164V262.846H327.281C328.969 262.846 330.423 263.178 331.642 263.841C332.866 264.499 333.81 265.449 334.474 266.689C335.137 267.925 335.469 269.402 335.469 271.123C335.469 272.849 335.137 274.333 334.474 275.573C333.816 276.814 332.874 277.766 331.65 278.429C330.426 279.087 328.972 279.416 327.289 279.416ZM325.169 276.002H327.135C328.063 276.002 328.848 275.846 329.49 275.533C330.137 275.214 330.625 274.699 330.954 273.987C331.289 273.27 331.456 272.315 331.456 271.123C331.456 269.931 331.289 268.982 330.954 268.275C330.62 267.563 330.126 267.051 329.474 266.738C328.826 266.42 328.028 266.261 327.079 266.261H325.169V276.002Z" fill="white"/>
    <path d="M340.412 279.416H336.108L341.699 262.846H347.031L352.622 279.416H348.317L344.426 267.021H344.296L340.412 279.416ZM339.838 272.895H348.835V275.937H339.838V272.895Z" fill="white"/>
    <path d="M355.943 262.846L359.649 274.983H359.786L363.492 262.846H367.974L362.383 279.416H357.051L351.461 262.846H355.943Z" fill="white"/>
    <path d="M369.758 279.416V262.846H373.763V276.164H380.657V279.416H369.758Z" fill="white"/>
    <path d="M386.537 279.416H382.232L387.823 262.846H393.155L398.746 279.416H394.441L390.55 267.021H390.42L386.537 279.416ZM385.962 272.895H394.959V275.937H385.962V272.895Z" fill="white"/>
    <path d="M397.918 266.099V262.846H411.924V266.099H406.899V279.416H402.951V266.099H397.918Z" fill="white"/>
    <path d="M123.002 295.598V312.168H119.604L113.01 302.605H112.905V312.168H108.9V295.598H112.347L118.868 305.145H119.005V295.598H123.002Z" fill="white"/>
    <path d="M129.105 312.168H124.8L130.391 295.598H135.723L141.314 312.168H137.01L133.118 299.773H132.988L129.105 312.168ZM128.53 305.647H137.527V308.689H128.53V305.647Z" fill="white"/>
    <path d="M143.041 312.168V309.887L151.092 298.851H143.049V295.598H156.157V297.88L148.106 308.916H156.149V312.168H143.041Z" fill="white"/>
    <path d="M173.467 303.883C173.467 305.706 173.117 307.252 172.415 308.519C171.714 309.787 170.765 310.75 169.567 311.408C168.375 312.066 167.038 312.395 165.554 312.395C164.066 312.395 162.725 312.063 161.533 311.4C160.341 310.736 159.394 309.773 158.693 308.511C157.997 307.244 157.649 305.701 157.649 303.883C157.649 302.06 157.997 300.515 158.693 299.247C159.394 297.98 160.341 297.017 161.533 296.359C162.725 295.701 164.066 295.372 165.554 295.372C167.038 295.372 168.375 295.701 169.567 296.359C170.765 297.017 171.714 297.98 172.415 299.247C173.117 300.515 173.467 302.06 173.467 303.883ZM169.373 303.883C169.373 302.804 169.219 301.893 168.912 301.148C168.61 300.404 168.173 299.84 167.601 299.457C167.035 299.074 166.353 298.883 165.554 298.883C164.761 298.883 164.079 299.074 163.507 299.457C162.936 299.84 162.496 300.404 162.188 301.148C161.886 301.893 161.735 302.804 161.735 303.883C161.735 304.962 161.886 305.874 162.188 306.618C162.496 307.362 162.936 307.926 163.507 308.309C164.079 308.692 164.761 308.883 165.554 308.883C166.353 308.883 167.035 308.692 167.601 308.309C168.173 307.926 168.61 307.362 168.912 306.618C169.219 305.874 169.373 304.962 169.373 303.883Z" fill="white"/>
    <path d="M175.805 312.168V295.598H182.65C183.891 295.598 184.962 295.822 185.862 296.27C186.769 296.712 187.467 297.348 187.958 298.179C188.449 299.004 188.694 299.983 188.694 301.116C188.694 302.265 188.443 303.241 187.942 304.045C187.44 304.843 186.728 305.453 185.806 305.874C184.883 306.289 183.791 306.497 182.529 306.497H178.2V303.341H181.785C182.389 303.341 182.893 303.263 183.298 303.106C183.708 302.945 184.018 302.702 184.228 302.378C184.438 302.049 184.544 301.629 184.544 301.116C184.544 300.604 184.438 300.18 184.228 299.846C184.018 299.506 183.708 299.252 183.298 299.085C182.888 298.913 182.383 298.826 181.785 298.826H179.81V312.168H175.805ZM185.134 304.595L189.261 312.168H184.892L180.846 304.595H185.134Z" fill="white"/>
    <path d="M194.475 312.168H190.171L195.762 295.598H201.093L206.684 312.168H202.38L198.488 299.773H198.359L194.475 312.168ZM193.901 305.647H202.898V308.689H193.901V305.647Z" fill="white"/>
    <path d="M205.857 298.851V295.598H219.862V298.851H214.838V312.168H210.89V298.851H205.857Z" fill="white"/>
    <path d="M225.823 295.598V312.168H221.818V295.598H225.823Z" fill="white"/>
    <path d="M237.238 295.598V312.168H233.233V295.598H237.238Z" fill="white"/>
    <path d="M253.854 295.598V312.168H250.456L243.862 302.605H243.757V312.168H239.752V295.598H243.198L249.72 305.145H249.857V295.598H253.854Z" fill="white"/>
    <path d="M265.329 300.566C265.275 299.973 265.035 299.511 264.609 299.182C264.188 298.848 263.587 298.681 262.805 298.681C262.287 298.681 261.855 298.748 261.51 298.883C261.165 299.018 260.906 299.204 260.733 299.441C260.561 299.673 260.472 299.94 260.466 300.242C260.456 300.49 260.504 300.709 260.612 300.898C260.725 301.086 260.887 301.254 261.098 301.399C261.313 301.54 261.572 301.664 261.874 301.771C262.176 301.879 262.516 301.974 262.894 302.055L264.318 302.378C265.138 302.556 265.86 302.794 266.486 303.09C267.117 303.387 267.646 303.74 268.072 304.15C268.503 304.56 268.83 305.032 269.051 305.566C269.272 306.1 269.385 306.699 269.391 307.362C269.385 308.409 269.121 309.307 268.598 310.057C268.075 310.806 267.322 311.381 266.34 311.78C265.364 312.179 264.186 312.379 262.805 312.379C261.418 312.379 260.21 312.171 259.18 311.756C258.15 311.34 257.349 310.709 256.777 309.862C256.205 309.015 255.911 307.945 255.895 306.65H259.73C259.763 307.184 259.905 307.629 260.159 307.985C260.413 308.341 260.76 308.611 261.203 308.794C261.65 308.978 262.168 309.069 262.756 309.069C263.296 309.069 263.754 308.997 264.132 308.851C264.515 308.705 264.809 308.503 265.014 308.244C265.218 307.985 265.324 307.689 265.329 307.354C265.324 307.041 265.227 306.774 265.038 306.553C264.849 306.327 264.558 306.132 264.164 305.971C263.776 305.803 263.279 305.65 262.675 305.509L260.944 305.105C259.509 304.776 258.379 304.245 257.554 303.511C256.728 302.772 256.319 301.774 256.324 300.517C256.319 299.493 256.594 298.594 257.149 297.823C257.705 297.052 258.473 296.45 259.455 296.019C260.437 295.587 261.556 295.372 262.813 295.372C264.097 295.372 265.21 295.59 266.154 296.027C267.104 296.458 267.84 297.065 268.363 297.847C268.886 298.629 269.153 299.536 269.164 300.566H265.329Z" fill="white"/>
    <path d="M271.413 312.168V295.598H278.258C279.499 295.598 280.57 295.841 281.47 296.326C282.377 296.806 283.075 297.478 283.566 298.341C284.057 299.199 284.302 300.196 284.302 301.335C284.302 302.478 284.051 303.479 283.55 304.336C283.053 305.189 282.344 305.849 281.422 306.319C280.499 306.788 279.405 307.022 278.137 307.022H273.913V303.867H277.393C277.997 303.867 278.501 303.762 278.906 303.551C279.316 303.341 279.626 303.047 279.836 302.67C280.046 302.287 280.152 301.842 280.152 301.335C280.152 300.822 280.046 300.38 279.836 300.008C279.626 299.63 279.316 299.339 278.906 299.134C278.496 298.929 277.991 298.826 277.393 298.826H275.418V312.168H271.413Z" fill="white"/>
    <path d="M286.276 312.168V295.598H297.83V298.851H290.281V302.249H297.24V305.509H290.281V308.916H297.83V312.168H286.276Z" fill="white"/>
    <path d="M300.338 312.168V295.598H304.343V302.605H304.562L310.039 295.598H314.756L308.882 302.993L314.861 312.168H310.072L305.945 305.655L304.343 307.678V312.168H300.338Z" fill="white"/>
    <path d="M325.115 300.566C325.061 299.973 324.821 299.511 324.395 299.182C323.974 298.848 323.372 298.681 322.59 298.681C322.072 298.681 321.641 298.748 321.296 298.883C320.951 299.018 320.692 299.204 320.519 299.441C320.346 299.673 320.257 299.94 320.252 300.242C320.241 300.49 320.29 300.709 320.398 300.898C320.511 301.086 320.673 301.254 320.883 301.399C321.099 301.54 321.358 301.664 321.66 301.771C321.962 301.879 322.302 301.974 322.679 302.055L324.103 302.378C324.923 302.556 325.646 302.794 326.272 303.09C326.903 303.387 327.431 303.74 327.857 304.15C328.289 304.56 328.615 305.032 328.836 305.566C329.058 306.1 329.171 306.699 329.176 307.362C329.171 308.409 328.907 309.307 328.383 310.057C327.86 310.806 327.108 311.381 326.126 311.78C325.15 312.179 323.971 312.379 322.59 312.379C321.204 312.379 319.996 312.171 318.966 311.756C317.935 311.34 317.134 310.709 316.563 309.862C315.991 309.015 315.697 307.945 315.681 306.65H319.516C319.548 307.184 319.691 307.629 319.945 307.985C320.198 308.341 320.546 308.611 320.988 308.794C321.436 308.978 321.954 309.069 322.542 309.069C323.081 309.069 323.54 308.997 323.917 308.851C324.3 308.705 324.594 308.503 324.799 308.244C325.004 307.985 325.109 307.689 325.115 307.354C325.109 307.041 325.012 306.774 324.823 306.553C324.635 306.327 324.343 306.132 323.95 305.971C323.561 305.803 323.065 305.65 322.461 305.509L320.729 305.105C319.295 304.776 318.165 304.245 317.339 303.511C316.514 302.772 316.104 301.774 316.109 300.517C316.104 299.493 316.379 298.594 316.935 297.823C317.49 297.052 318.259 296.45 319.241 296.019C320.222 295.587 321.342 295.372 322.598 295.372C323.882 295.372 324.996 295.59 325.94 296.027C326.889 296.458 327.626 297.065 328.149 297.847C328.672 298.629 328.939 299.536 328.95 300.566H325.115Z" fill="white"/>
    <path d="M335.204 295.598V312.168H331.199V295.598H335.204Z" fill="white"/>
    <path d="M336.893 295.598H341.367L344.871 302.532H345.016L348.52 295.598H352.994L346.934 306.634V312.168H342.953V306.634L336.893 295.598Z" fill="white"/>
    <path d="M356.566 312.168H352.262L357.852 295.598H363.184L368.775 312.168H364.471L360.579 299.773H360.45L356.566 312.168ZM355.991 305.647H364.989V308.689H355.991V305.647Z" fill="white"/>
    <path d="M379.004 300.566C378.95 299.973 378.71 299.511 378.284 299.182C377.863 298.848 377.262 298.681 376.48 298.681C375.962 298.681 375.53 298.748 375.185 298.883C374.84 299.018 374.581 299.204 374.408 299.441C374.236 299.673 374.147 299.94 374.141 300.242C374.131 300.49 374.179 300.709 374.287 300.898C374.4 301.086 374.562 301.254 374.772 301.399C374.988 301.54 375.247 301.664 375.549 301.771C375.851 301.879 376.191 301.974 376.569 302.055L377.993 302.378C378.813 302.556 379.535 302.794 380.161 303.09C380.792 303.387 381.321 303.74 381.747 304.15C382.178 304.56 382.505 305.032 382.726 305.566C382.947 306.1 383.06 306.699 383.066 307.362C383.06 308.409 382.796 309.307 382.273 310.057C381.75 310.806 380.997 311.381 380.015 311.78C379.039 312.179 377.861 312.379 376.48 312.379C375.093 312.379 373.885 312.171 372.855 311.756C371.825 311.34 371.024 310.709 370.452 309.862C369.88 309.015 369.586 307.945 369.57 306.65H373.405C373.437 307.184 373.58 307.629 373.834 307.985C374.087 308.341 374.435 308.611 374.878 308.794C375.325 308.978 375.843 309.069 376.431 309.069C376.97 309.069 377.429 308.997 377.807 308.851C378.19 308.705 378.483 308.503 378.688 308.244C378.893 307.985 378.999 307.689 379.004 307.354C378.999 307.041 378.902 306.774 378.713 306.553C378.524 306.327 378.233 306.132 377.839 305.971C377.451 305.803 376.954 305.65 376.35 305.509L374.619 305.105C373.184 304.776 372.054 304.245 371.229 303.511C370.403 302.772 369.993 301.774 369.999 300.517C369.993 299.493 370.269 298.594 370.824 297.823C371.38 297.052 372.148 296.45 373.13 296.019C374.112 295.587 375.231 295.372 376.488 295.372C377.771 295.372 378.885 295.59 379.829 296.027C380.779 296.458 381.515 297.065 382.038 297.847C382.561 298.629 382.828 299.536 382.839 300.566H379.004Z" fill="white"/>
    <path d="M389.093 295.598V312.168H385.088V295.598H389.093Z" fill="white"/>
    <path d="M192.511 62.7512C161.65 93.6425 136.406 119.062 136.406 119.236C136.406 119.612 248.499 231.712 248.875 231.712C249.049 231.712 274.496 206.38 305.472 175.402L361.779 119.091L305.472 62.7801C274.496 31.802 249.049 6.49829 248.875 6.52725C248.731 6.5562 223.342 31.8598 192.511 62.7512ZM293.458 74.795L337.751 119.091L293.603 163.329C269.314 187.677 249.252 207.596 249.02 207.625C248.789 207.654 228.64 187.764 204.293 163.387L160 119.091L204.293 74.795C228.64 50.4178 248.702 30.4991 248.875 30.4991C249.049 30.4991 269.111 50.4178 293.458 74.795Z" fill="white"/>
    <path d="M245.238 46.046C241.474 49.9255 200.511 91.3841 182.272 109.768C177.351 114.748 173.24 118.888 173.153 118.975C173.037 119.12 184.183 130.382 184.444 130.382C184.53 130.382 199.121 115.848 216.867 98.1009C234.613 80.3536 249.204 65.8199 249.291 65.8199C249.378 65.8199 263.968 80.3536 281.714 98.1009C299.46 115.848 314.109 130.382 314.283 130.382C314.659 130.382 325.891 119.149 325.718 118.975C325.631 118.888 320.941 114.169 315.296 108.466C294.394 87.4177 254.531 47.0593 252.186 44.5984C250.854 43.2087 249.609 42.0796 249.435 42.0796C249.262 42.0796 247.351 43.8746 245.238 46.046Z" fill="white"/>
    <path d="M219.84 108.321C203.802 124.36 190.659 137.62 190.688 137.765C190.688 137.939 193.409 140.776 196.709 144.076L202.731 150.098L209.042 143.96C212.487 140.602 215.382 137.91 215.468 137.996C215.555 138.083 215.613 143.671 215.584 150.388V162.663L223.893 170.972C228.467 175.576 232.259 179.31 232.288 179.31C232.346 179.31 232.375 166.195 232.375 150.156V120.973L236.196 117.151C238.31 115.038 240.191 113.301 240.394 113.301C240.684 113.301 240.77 120.741 240.77 150.619V187.909L244.997 192.049L249.224 196.16L250.584 194.915C251.308 194.22 253.248 192.339 254.898 190.746L257.851 187.851V150.59C257.851 120.22 257.909 113.301 258.227 113.301C258.43 113.301 260.311 115.038 262.425 117.151L266.246 121.031V150.243V179.455L274.641 171.03L283.066 162.634L283.037 150.33C283.008 137.302 283.008 137.475 284.34 138.865C284.687 139.212 287.408 141.905 290.39 144.829L295.804 150.156L301.883 144.105C305.212 140.776 307.933 137.91 307.933 137.736C307.933 137.417 249.658 79.3406 249.224 79.2248C249.108 79.1958 235.878 92.3109 219.84 108.321Z" fill="white"/>
    </svg>
    