<svg width="20" height="20" viewBox="0 0 20 20" fill="none" xmlns="http://www.w3.org/2000/svg">
    <path d="M15.8333 2.5H4.15833C3.23333 2.5 2.5 3.25 2.5 4.16667V15.8333C2.5 16.75 3.23333 17.5 4.15833 17.5H15.8333C16.75 17.5 17.5 16.75 17.5 15.8333V4.16667C17.5 3.25 16.75 2.5 15.8333 2.5ZM15.8333 12.5H13.225C12.8333 12.5 12.5167 12.7833 12.4083 13.1667C12.1167 14.225 11.1417 15 10 15C8.85833 15 7.88333 14.225 7.59167 13.1667C7.48333 12.7833 7.16667 12.5 6.775 12.5H4.15833V5C4.15833 4.54167 4.53333 4.16667 4.99167 4.16667H15C15.4583 4.16667 15.8333 4.54167 15.8333 5V12.5ZM13.3333 8.33333H11.6667V5.83333H8.33333V8.33333H6.66667L9.70833 11.375C9.875 11.5417 10.1333 11.5417 10.3 11.375L13.3333 8.33333Z" fill="white"/>
    </svg>
    