<svg width="202" height="47" viewBox="0 0 202 47" fill="none" xmlns="http://www.w3.org/2000/svg">
<path d="M56.9141 17.8507H58.362L58.9774 18.6363L59.7847 19.563L61.0263 21.0942H59.4046L58.5358 20.0553L58.0218 19.3168L56.9141 17.8507ZM61.077 16.8082C61.077 17.6239 60.9202 18.3153 60.6064 18.8824C60.2927 19.4496 59.868 19.8803 59.3322 20.1748C58.7989 20.4692 58.2004 20.6164 57.5367 20.6164C56.8706 20.6164 56.2709 20.468 55.7376 20.1711C55.2042 19.8743 54.7807 19.4435 54.467 18.8788C54.1557 18.3117 54 17.6215 54 16.8082C54 15.9925 54.1557 15.3011 54.467 14.734C54.7807 14.1668 55.2042 13.7361 55.7376 13.4416C56.2709 13.1472 56.8706 13 57.5367 13C58.2004 13 58.7989 13.1472 59.3322 13.4416C59.868 13.7361 60.2927 14.1668 60.6064 14.734C60.9202 15.3011 61.077 15.9925 61.077 16.8082ZM59.2453 16.8082C59.2453 16.3255 59.1765 15.9177 59.039 15.5847C58.9038 15.2516 58.7084 14.9994 58.4525 14.8281C58.1992 14.6567 57.8939 14.5711 57.5367 14.5711C57.1819 14.5711 56.8767 14.6567 56.6209 14.8281C56.365 14.9994 56.1684 15.2516 56.0308 15.5847C55.8957 15.9177 55.8281 16.3255 55.8281 16.8082C55.8281 17.2909 55.8957 17.6987 56.0308 18.0317C56.1684 18.3648 56.365 18.617 56.6209 18.7883C56.8767 18.9597 57.1819 19.0453 57.5367 19.0453C57.8939 19.0453 58.1992 18.9597 58.4525 18.7883C58.7084 18.617 58.9038 18.3648 59.039 18.0317C59.1765 17.6987 59.2453 17.2909 59.2453 16.8082Z" fill="#30396B"/>
<path d="M66.6183 13.1014H68.4065V17.8833C68.4065 18.436 68.275 18.9174 68.0119 19.3277C67.7489 19.7355 67.3821 20.0517 66.9115 20.2761C66.4409 20.4981 65.8943 20.6092 65.2716 20.6092C64.6418 20.6092 64.0915 20.4981 63.6209 20.2761C63.1503 20.0517 62.7847 19.7355 62.5241 19.3277C62.2635 18.9174 62.1331 18.436 62.1331 17.8833V13.1014H63.925V17.7277C63.925 17.9835 63.9805 18.2115 64.0915 18.4118C64.205 18.6121 64.363 18.769 64.5658 18.8824C64.7685 18.9959 65.0038 19.0526 65.2716 19.0526C65.5395 19.0526 65.7736 18.9959 65.9739 18.8824C66.1766 18.769 66.3347 18.6121 66.4481 18.4118C66.5616 18.2115 66.6183 17.9835 66.6183 17.7277V13.1014Z" fill="#30396B"/>
<path d="M69.5296 20.515V13.1014H72.5921C73.1472 13.1014 73.6262 13.2015 74.0292 13.4018C74.4347 13.5997 74.7472 13.8845 74.9668 14.2561C75.1864 14.6254 75.2962 15.0634 75.2962 15.5702C75.2962 16.0842 75.184 16.521 74.9596 16.8806C74.7351 17.2378 74.4166 17.5105 74.0039 17.6987C73.5912 17.8845 73.1025 17.9774 72.5378 17.9774H70.6011V16.5657H72.2048C72.4751 16.5657 72.7007 16.5307 72.8817 16.4607C73.0651 16.3883 73.2039 16.2797 73.298 16.1349C73.3921 15.9877 73.4392 15.7994 73.4392 15.5702C73.4392 15.3409 73.3921 15.1515 73.298 15.0018C73.2039 14.8498 73.0651 14.7364 72.8817 14.6616C72.6983 14.5843 72.4726 14.5457 72.2048 14.5457H71.3215V20.515H69.5296ZM73.7034 17.1268L75.5496 20.515H73.5948L71.7848 17.1268H73.7034Z" fill="#30396B"/>
<path d="M78.0709 13.1014V20.515H76.279V13.1014H78.0709Z" fill="#30396B"/>
<path d="M79.1958 20.515V13.1014H80.9877V19.0598H84.0719V20.515H79.1958Z" fill="#30396B"/>
<path d="M86.7914 13.1014V20.515H84.9995V13.1014H86.7914Z" fill="#30396B"/>
<path d="M91.9236 15.324C91.8994 15.0586 91.792 14.8522 91.6014 14.705C91.4132 14.5554 91.1441 14.4806 90.7941 14.4806C90.5625 14.4806 90.3694 14.5107 90.215 14.5711C90.0605 14.6314 89.9447 14.7147 89.8674 14.8208C89.7902 14.9246 89.7504 15.0441 89.748 15.1792C89.7432 15.2902 89.7649 15.388 89.8131 15.4724C89.8638 15.5569 89.9362 15.6317 90.0303 15.6969C90.1269 15.7596 90.2427 15.8151 90.3778 15.8634C90.513 15.9117 90.665 15.9539 90.834 15.9901L91.4711 16.1349C91.8379 16.2145 92.1613 16.3207 92.4412 16.4534C92.7236 16.5862 92.9601 16.7442 93.1507 16.9277C93.3438 17.1111 93.4898 17.3222 93.5887 17.5612C93.6877 17.8001 93.7384 18.0679 93.7408 18.3648C93.7384 18.833 93.6201 19.2348 93.386 19.5702C93.1519 19.9057 92.8153 20.1627 92.3761 20.3413C91.9393 20.5199 91.412 20.6092 90.7941 20.6092C90.1739 20.6092 89.6333 20.5162 89.1724 20.3304C88.7115 20.1446 88.3531 19.8622 88.0973 19.4834C87.8415 19.1045 87.7099 18.6254 87.7027 18.0462H89.4186C89.433 18.2851 89.497 18.4842 89.6104 18.6435C89.7238 18.8028 89.8795 18.9235 90.0774 19.0055C90.2777 19.0876 90.5094 19.1286 90.7724 19.1286C91.0138 19.1286 91.2189 19.096 91.3878 19.0309C91.5592 18.9657 91.6907 18.8752 91.7824 18.7594C91.8741 18.6435 91.9212 18.5108 91.9236 18.3612C91.9212 18.2212 91.8777 18.1017 91.7933 18.0028C91.7088 17.9014 91.5785 17.8145 91.4023 17.7421C91.2285 17.6673 91.0065 17.5986 90.7362 17.5358L89.9616 17.3548C89.3196 17.2076 88.814 16.9699 88.4448 16.6417C88.0756 16.3111 87.8921 15.8646 87.8946 15.3023C87.8921 14.8438 88.0152 14.442 88.2638 14.0968C88.5124 13.7517 88.8563 13.4827 89.2955 13.2896C89.7347 13.0965 90.2355 13 90.7978 13C91.3721 13 91.8705 13.0977 92.2928 13.2932C92.7175 13.4863 93.047 13.7578 93.2811 14.1077C93.5151 14.4576 93.6346 14.8631 93.6394 15.324H91.9236Z" fill="#30396B"/>
<path d="M94.6458 20.515V13.1014H96.4377V16.077H99.359V13.1014H101.147V20.515H99.359V17.5358H96.4377V20.515H94.6458Z" fill="#30396B"/>
<path d="M108.469 15.324C108.444 15.0586 108.337 14.8522 108.146 14.705C107.958 14.5554 107.689 14.4806 107.339 14.4806C107.107 14.4806 106.914 14.5107 106.76 14.5711C106.606 14.6314 106.49 14.7147 106.412 14.8208C106.335 14.9246 106.295 15.0441 106.293 15.1792C106.288 15.2902 106.31 15.388 106.358 15.4724C106.409 15.5569 106.481 15.6317 106.575 15.6969C106.672 15.7596 106.788 15.8151 106.923 15.8634C107.058 15.9117 107.21 15.9539 107.379 15.9901L108.016 16.1349C108.383 16.2145 108.706 16.3207 108.986 16.4534C109.269 16.5862 109.505 16.7442 109.696 16.9277C109.889 17.1111 110.035 17.3222 110.134 17.5612C110.233 17.8001 110.283 18.0679 110.286 18.3648C110.283 18.833 110.165 19.2348 109.931 19.5702C109.697 19.9057 109.36 20.1627 108.921 20.3413C108.484 20.5199 107.957 20.6092 107.339 20.6092C106.719 20.6092 106.178 20.5162 105.717 20.3304C105.256 20.1446 104.898 19.8622 104.642 19.4834C104.386 19.1045 104.255 18.6254 104.248 18.0462H105.964C105.978 18.2851 106.042 18.4842 106.155 18.6435C106.269 18.8028 106.425 18.9235 106.622 19.0055C106.823 19.0876 107.054 19.1286 107.317 19.1286C107.559 19.1286 107.764 19.096 107.933 19.0309C108.104 18.9657 108.236 18.8752 108.327 18.7594C108.419 18.6435 108.466 18.5108 108.469 18.3612C108.466 18.2212 108.423 18.1017 108.338 18.0028C108.254 17.9014 108.123 17.8145 107.947 17.7421C107.774 17.6673 107.552 17.5986 107.281 17.5358L106.507 17.3548C105.865 17.2076 105.359 16.9699 104.99 16.6417C104.621 16.3111 104.437 15.8646 104.44 15.3023C104.437 14.8438 104.56 14.442 104.809 14.0968C105.057 13.7517 105.401 13.4827 105.84 13.2896C106.28 13.0965 106.78 13 107.343 13C107.917 13 108.415 13.0977 108.838 13.2932C109.263 13.4863 109.592 13.7578 109.826 14.1077C110.06 14.4576 110.18 14.8631 110.184 15.324H108.469Z" fill="#30396B"/>
<path d="M118.188 16.8082C118.188 17.6239 118.031 18.3153 117.718 18.8824C117.404 19.4496 116.979 19.8803 116.443 20.1748C115.91 20.4692 115.312 20.6164 114.648 20.6164C113.982 20.6164 113.382 20.468 112.849 20.1711C112.315 19.8743 111.892 19.4435 111.578 18.8788C111.267 18.3117 111.111 17.6215 111.111 16.8082C111.111 15.9925 111.267 15.3011 111.578 14.734C111.892 14.1668 112.315 13.7361 112.849 13.4416C113.382 13.1472 113.982 13 114.648 13C115.312 13 115.91 13.1472 116.443 13.4416C116.979 13.7361 117.404 14.1668 117.718 14.734C118.031 15.3011 118.188 15.9925 118.188 16.8082ZM116.356 16.8082C116.356 16.3255 116.288 15.9177 116.15 15.5847C116.015 15.2516 115.82 14.9994 115.564 14.8281C115.31 14.6567 115.005 14.5711 114.648 14.5711C114.293 14.5711 113.988 14.6567 113.732 14.8281C113.476 14.9994 113.28 15.2516 113.142 15.5847C113.007 15.9177 112.939 16.3255 112.939 16.8082C112.939 17.2909 113.007 17.6987 113.142 18.0317C113.28 18.3648 113.476 18.617 113.732 18.7883C113.988 18.9597 114.293 19.0453 114.648 19.0453C115.005 19.0453 115.31 18.9597 115.564 18.7883C115.82 18.617 116.015 18.3648 116.15 18.0317C116.288 17.6987 116.356 17.2909 116.356 16.8082Z" fill="#30396B"/>
<path d="M119.234 20.515V13.1014H121.026V16.077H123.948V13.1014H125.736V20.515H123.948V17.5358H121.026V20.515H119.234Z" fill="#30396B"/>
<path d="M128.463 20.515H126.538L129.039 13.1014H131.425L133.926 20.515H132L130.259 14.9693H130.201L128.463 20.515ZM128.206 17.5974H132.232V18.9585H128.206V17.5974Z" fill="#30396B"/>
<path d="M138.502 15.324C138.478 15.0586 138.371 14.8522 138.18 14.705C137.992 14.5554 137.723 14.4806 137.373 14.4806C137.141 14.4806 136.948 14.5107 136.794 14.5711C136.639 14.6314 136.524 14.7147 136.446 14.8208C136.369 14.9246 136.329 15.0441 136.327 15.1792C136.322 15.2902 136.344 15.388 136.392 15.4724C136.443 15.5569 136.515 15.6317 136.609 15.6969C136.706 15.7596 136.822 15.8151 136.957 15.8634C137.092 15.9117 137.244 15.9539 137.413 15.9901L138.05 16.1349C138.417 16.2145 138.74 16.3207 139.02 16.4534C139.302 16.5862 139.539 16.7442 139.73 16.9277C139.923 17.1111 140.069 17.3222 140.168 17.5612C140.267 17.8001 140.317 18.0679 140.32 18.3648C140.317 18.833 140.199 19.2348 139.965 19.5702C139.731 19.9057 139.394 20.1627 138.955 20.3413C138.518 20.5199 137.991 20.6092 137.373 20.6092C136.753 20.6092 136.212 20.5162 135.751 20.3304C135.29 20.1446 134.932 19.8622 134.676 19.4834C134.42 19.1045 134.289 18.6254 134.282 18.0462H135.997C136.012 18.2851 136.076 18.4842 136.189 18.6435C136.303 18.8028 136.458 18.9235 136.656 19.0055C136.857 19.0876 137.088 19.1286 137.351 19.1286C137.593 19.1286 137.798 19.096 137.967 19.0309C138.138 18.9657 138.27 18.8752 138.361 18.7594C138.453 18.6435 138.5 18.5108 138.502 18.3612C138.5 18.2212 138.457 18.1017 138.372 18.0028C138.288 17.9014 138.157 17.8145 137.981 17.7421C137.807 17.6673 137.585 17.5986 137.315 17.5358L136.54 17.3548C135.899 17.2076 135.393 16.9699 135.024 16.6417C134.654 16.3111 134.471 15.8646 134.473 15.3023C134.471 14.8438 134.594 14.442 134.843 14.0968C135.091 13.7517 135.435 13.4827 135.874 13.2896C136.314 13.0965 136.814 13 137.377 13C137.951 13 138.449 13.0977 138.872 13.2932C139.296 13.4863 139.626 13.7578 139.86 14.1077C140.094 14.4576 140.213 14.8631 140.218 15.324H138.502Z" fill="#30396B"/>
<path d="M143.017 13.1014V20.515H141.225V13.1014H143.017Z" fill="#30396B"/>
<path d="M146.882 20.515H144.141V13.1014H146.878C147.633 13.1014 148.284 13.2498 148.829 13.5466C149.377 13.841 149.799 14.2658 150.096 14.8208C150.393 15.3735 150.542 16.0347 150.542 16.8046C150.542 17.5768 150.393 18.2405 150.096 18.7956C149.802 19.3506 149.381 19.7766 148.833 20.0734C148.285 20.3678 147.635 20.515 146.882 20.515ZM145.933 18.9874H146.813C147.228 18.9874 147.579 18.9174 147.866 18.7775C148.156 18.6351 148.374 18.4046 148.522 18.086C148.671 17.7651 148.746 17.3379 148.746 16.8046C148.746 16.2712 148.671 15.8465 148.522 15.5304C148.372 15.2118 148.151 14.9825 147.859 14.8426C147.57 14.7002 147.212 14.629 146.788 14.629H145.933V18.9874Z" fill="#30396B"/>
<path d="M152.753 20.515H150.828L153.329 13.1014H155.714L158.216 20.515H156.29L154.549 14.9693H154.491L152.753 20.515ZM152.496 17.5974H156.522V18.9585H152.496V17.5974Z" fill="#30396B"/>
<path d="M163.944 20.515H161.204V13.1014H163.941C164.696 13.1014 165.347 13.2498 165.892 13.5466C166.44 13.841 166.862 14.2658 167.159 14.8208C167.456 15.3735 167.604 16.0347 167.604 16.8046C167.604 17.5768 167.456 18.2405 167.159 18.7956C166.865 19.3506 166.443 19.7766 165.896 20.0734C165.348 20.3678 164.697 20.515 163.944 20.515ZM162.996 18.9874H163.876C164.291 18.9874 164.642 18.9174 164.929 18.7775C165.219 18.6351 165.437 18.4046 165.584 18.086C165.734 17.7651 165.809 17.3379 165.809 16.8046C165.809 16.2712 165.734 15.8465 165.584 15.5304C165.435 15.2118 165.214 14.9825 164.922 14.8426C164.632 14.7002 164.275 14.629 163.85 14.629H162.996V18.9874Z" fill="#30396B"/>
<path d="M169.816 20.515H167.89L170.392 13.1014H172.777L175.279 20.515H173.353L171.611 14.9693H171.554L169.816 20.515ZM169.559 17.5974H173.584V18.9585H169.559V17.5974Z" fill="#30396B"/>
<path d="M176.764 13.1014L178.422 18.5313H178.484L180.142 13.1014H182.147L179.646 20.515H177.26L174.759 13.1014H176.764Z" fill="#30396B"/>
<path d="M182.946 20.515V13.1014H184.737V19.0598H187.822V20.515H182.946Z" fill="#30396B"/>
<path d="M190.452 20.515H188.527L191.028 13.1014H193.414L195.915 20.515H193.989L192.248 14.9693H192.19L190.452 20.515ZM190.195 17.5974H194.221V18.9585H190.195V17.5974Z" fill="#30396B"/>
<path d="M195.545 14.5566V13.1014H201.811V14.5566H199.563V20.515H197.796V14.5566H195.545Z" fill="#30396B"/>
<path d="M72.5441 27.755V35.1686H71.0238L68.0735 30.8898H68.0264V35.1686H66.2346V27.755H67.7767L70.6943 32.0265H70.7559V27.755H72.5441Z" fill="#30396B"/>
<path d="M75.2745 35.1686H73.3487L75.8501 27.755H78.2356L80.737 35.1686H78.8112L77.07 29.6229H77.0121L75.2745 35.1686ZM75.0175 32.251H79.0429V33.6121H75.0175V32.251Z" fill="#30396B"/>
<path d="M81.5099 35.1686V34.1478L85.1117 29.2102H81.5135V27.755H87.3778V28.7758L83.776 33.7134H87.3742V35.1686H81.5099Z" fill="#30396B"/>
<path d="M95.1227 31.4618C95.1227 32.2775 94.9658 32.9689 94.6521 33.536C94.3384 34.1032 93.9136 34.5339 93.3779 34.8284C92.8446 35.1228 92.246 35.27 91.5824 35.27C90.9163 35.27 90.3166 35.1216 89.7833 34.8247C89.2499 34.5279 88.8264 34.0971 88.5127 33.5324C88.2014 32.9653 88.0457 32.2751 88.0457 31.4618C88.0457 30.6461 88.2014 29.9547 88.5127 29.3876C88.8264 28.8204 89.2499 28.3897 89.7833 28.0952C90.3166 27.8008 90.9163 27.6536 91.5824 27.6536C92.246 27.6536 92.8446 27.8008 93.3779 28.0952C93.9136 28.3897 94.3384 28.8204 94.6521 29.3876C94.9658 29.9547 95.1227 30.6461 95.1227 31.4618ZM93.291 31.4618C93.291 30.9791 93.2222 30.5713 93.0847 30.2383C92.9495 29.9052 92.7541 29.653 92.4982 29.4817C92.2448 29.3103 91.9396 29.2247 91.5824 29.2247C91.2276 29.2247 90.9224 29.3103 90.6665 29.4817C90.4107 29.653 90.2141 29.9052 90.0765 30.2383C89.9413 30.5713 89.8738 30.9791 89.8738 31.4618C89.8738 31.9445 89.9413 32.3523 90.0765 32.6853C90.2141 33.0184 90.4107 33.2706 90.6665 33.4419C90.9224 33.6133 91.2276 33.6989 91.5824 33.6989C91.9396 33.6989 92.2448 33.6133 92.4982 33.4419C92.7541 33.2706 92.9495 33.0184 93.0847 32.6853C93.2222 32.3523 93.291 31.9445 93.291 31.4618Z" fill="#30396B"/>
<path d="M96.1689 35.1686V27.755H99.2314C99.7864 27.755 100.265 27.8551 100.668 28.0554C101.074 28.2533 101.386 28.5381 101.606 28.9097C101.826 29.279 101.935 29.717 101.935 30.2238C101.935 30.7378 101.823 31.1746 101.599 31.5342C101.374 31.8914 101.056 32.1641 100.643 32.3523C100.23 32.5381 99.7418 32.631 99.1771 32.631H97.2404V31.2193H98.844C99.1143 31.2193 99.34 31.1843 99.521 31.1143C99.7044 31.0419 99.8431 30.9333 99.9373 30.7885C100.031 30.6413 100.078 30.453 100.078 30.2238C100.078 29.9945 100.031 29.8051 99.9373 29.6554C99.8431 29.5034 99.7044 29.39 99.521 29.3152C99.3375 29.2379 99.1119 29.1993 98.844 29.1993H97.9608V35.1686H96.1689ZM100.343 31.7804L102.189 35.1686H100.234L98.4241 31.7804H100.343Z" fill="#30396B"/>
<path d="M104.522 35.1686H102.596L105.097 27.755H107.483L109.984 35.1686H108.059L106.317 29.6229H106.26L104.522 35.1686ZM104.265 32.251H108.29V33.6121H104.265V32.251Z" fill="#30396B"/>
<path d="M109.614 29.2102V27.755H115.88V29.2102H113.632V35.1686H111.866V29.2102H109.614Z" fill="#30396B"/>
<path d="M118.547 27.755V35.1686H116.756V27.755H118.547Z" fill="#30396B"/>
<path d="M123.654 27.755V35.1686H121.862V27.755H123.654Z" fill="#30396B"/>
<path d="M131.089 27.755V35.1686H129.568L126.618 30.8898H126.571V35.1686H124.779V27.755H126.321L129.239 32.0265H129.301V27.755H131.089Z" fill="#30396B"/>
<path d="M136.223 29.9776C136.199 29.7122 136.091 29.5058 135.901 29.3586C135.712 29.209 135.443 29.1342 135.093 29.1342C134.862 29.1342 134.669 29.1643 134.514 29.2247C134.36 29.285 134.244 29.3683 134.167 29.4744C134.089 29.5782 134.05 29.6977 134.047 29.8328C134.042 29.9438 134.064 30.0416 134.112 30.126C134.163 30.2105 134.235 30.2853 134.33 30.3505C134.426 30.4132 134.542 30.4687 134.677 30.517C134.812 30.5653 134.964 30.6075 135.133 30.6437L135.77 30.7885C136.137 30.8681 136.461 30.9743 136.74 31.107C137.023 31.2398 137.259 31.3978 137.45 31.5813C137.643 31.7647 137.789 31.9758 137.888 32.2148C137.987 32.4537 138.038 32.7215 138.04 33.0184C138.038 33.4866 137.919 33.8884 137.685 34.2238C137.451 34.5593 137.115 34.8163 136.675 34.9949C136.238 35.1735 135.711 35.2628 135.093 35.2628C134.473 35.2628 133.933 35.1698 133.472 34.984C133.011 34.7982 132.652 34.5158 132.397 34.137C132.141 33.7581 132.009 33.279 132.002 32.6998H133.718C133.732 32.9387 133.796 33.1378 133.91 33.2971C134.023 33.4564 134.179 33.5771 134.377 33.6591C134.577 33.7412 134.809 33.7822 135.072 33.7822C135.313 33.7822 135.518 33.7496 135.687 33.6845C135.858 33.6193 135.99 33.5288 136.082 33.413C136.173 33.2971 136.22 33.1644 136.223 33.0148C136.22 32.8748 136.177 32.7553 136.092 32.6564C136.008 32.555 135.878 32.4682 135.702 32.3958C135.528 32.3209 135.306 32.2522 135.035 32.1894L134.261 32.0084C133.619 31.8612 133.113 31.6235 132.744 31.2953C132.375 30.9647 132.191 30.5182 132.194 29.9559C132.191 29.4974 132.314 29.0956 132.563 28.7505C132.812 28.4053 133.155 28.1363 133.595 27.9432C134.034 27.7501 134.535 27.6536 135.097 27.6536C135.671 27.6536 136.17 27.7513 136.592 27.9468C137.017 28.1399 137.346 28.4114 137.58 28.7613C137.814 29.1112 137.934 29.5167 137.939 29.9776H136.223Z" fill="#30396B"/>
<path d="M138.945 35.1686V27.755H142.007C142.563 27.755 143.042 27.8636 143.445 28.0808C143.85 28.2955 144.163 28.596 144.382 28.9821C144.602 29.3658 144.712 29.8123 144.712 30.3215C144.712 30.8331 144.599 31.2808 144.375 31.6645C144.153 32.0458 143.836 32.3414 143.423 32.5514C143.01 32.7614 142.52 32.8663 141.953 32.8663H140.064V31.4546H141.62C141.89 31.4546 142.116 31.4075 142.297 31.3134C142.48 31.2193 142.619 31.0877 142.713 30.9188C142.807 30.7475 142.855 30.5484 142.855 30.3215C142.855 30.0922 142.807 29.8944 142.713 29.7278C142.619 29.5589 142.48 29.4286 142.297 29.3369C142.114 29.2452 141.888 29.1993 141.62 29.1993H140.737V35.1686H138.945Z" fill="#30396B"/>
<path d="M145.595 35.1686V27.755H150.764V29.2102H147.387V30.7306H150.5V32.1894H147.387V33.7134H150.764V35.1686H145.595Z" fill="#30396B"/>
<path d="M151.886 35.1686V27.755H153.678V30.8898H153.776L156.227 27.755H158.337L155.709 31.0636L158.384 35.1686H156.241L154.395 32.2546L153.678 33.1596V35.1686H151.886Z" fill="#30396B"/>
<path d="M162.972 29.9776C162.947 29.7122 162.84 29.5058 162.649 29.3586C162.461 29.209 162.192 29.1342 161.842 29.1342C161.61 29.1342 161.417 29.1643 161.263 29.2247C161.108 29.285 160.993 29.3683 160.915 29.4744C160.838 29.5782 160.798 29.6977 160.796 29.8328C160.791 29.9438 160.813 30.0416 160.861 30.126C160.912 30.2105 160.984 30.2853 161.078 30.3505C161.175 30.4132 161.291 30.4687 161.426 30.517C161.561 30.5653 161.713 30.6075 161.882 30.6437L162.519 30.7885C162.886 30.8681 163.209 30.9743 163.489 31.107C163.772 31.2398 164.008 31.3978 164.199 31.5813C164.392 31.7647 164.538 31.9758 164.637 32.2148C164.736 32.4537 164.786 32.7215 164.789 33.0184C164.786 33.4866 164.668 33.8884 164.434 34.2238C164.2 34.5593 163.863 34.8163 163.424 34.9949C162.987 35.1735 162.46 35.2628 161.842 35.2628C161.222 35.2628 160.681 35.1698 160.22 34.984C159.759 34.7982 159.401 34.5158 159.145 34.137C158.889 33.7581 158.758 33.279 158.751 32.6998H160.467C160.481 32.9387 160.545 33.1378 160.658 33.2971C160.772 33.4564 160.927 33.5771 161.125 33.6591C161.326 33.7412 161.557 33.7822 161.82 33.7822C162.062 33.7822 162.267 33.7496 162.436 33.6845C162.607 33.6193 162.739 33.5288 162.83 33.413C162.922 33.2971 162.969 33.1644 162.972 33.0148C162.969 32.8748 162.926 32.7553 162.841 32.6564C162.757 32.555 162.626 32.4682 162.45 32.3958C162.277 32.3209 162.055 32.2522 161.784 32.1894L161.01 32.0084C160.368 31.8612 159.862 31.6235 159.493 31.2953C159.124 30.9647 158.94 30.5182 158.943 29.9559C158.94 29.4974 159.063 29.0956 159.312 28.7505C159.56 28.4053 159.904 28.1363 160.343 27.9432C160.783 27.7501 161.283 27.6536 161.846 27.6536C162.42 27.6536 162.918 27.7513 163.341 27.9468C163.766 28.1399 164.095 28.4114 164.329 28.7613C164.563 29.1112 164.683 29.5167 164.687 29.9776H162.972Z" fill="#30396B"/>
<path d="M167.486 27.755V35.1686H165.694V27.755H167.486Z" fill="#30396B"/>
<path d="M168.241 27.755H170.243L171.811 30.8573H171.876L173.443 27.755H175.445L172.734 32.6926V35.1686H170.953V32.6926L168.241 27.755Z" fill="#30396B"/>
<path d="M177.043 35.1686H175.117L177.619 27.755H180.004L182.506 35.1686H180.58L178.839 29.6229H178.781L177.043 35.1686ZM176.786 32.251H180.812V33.6121H176.786V32.251Z" fill="#30396B"/>
<path d="M187.082 29.9776C187.058 29.7122 186.951 29.5058 186.76 29.3586C186.572 29.209 186.303 29.1342 185.953 29.1342C185.721 29.1342 185.528 29.1643 185.374 29.2247C185.219 29.285 185.103 29.3683 185.026 29.4744C184.949 29.5782 184.909 29.6977 184.907 29.8328C184.902 29.9438 184.924 30.0416 184.972 30.126C185.023 30.2105 185.095 30.2853 185.189 30.3505C185.286 30.4132 185.401 30.4687 185.537 30.517C185.672 30.5653 185.824 30.6075 185.993 30.6437L186.63 30.7885C186.997 30.8681 187.32 30.9743 187.6 31.107C187.882 31.2398 188.119 31.3978 188.309 31.5813C188.503 31.7647 188.649 31.9758 188.747 32.2148C188.846 32.4537 188.897 32.7215 188.9 33.0184C188.897 33.4866 188.779 33.8884 188.545 34.2238C188.311 34.5593 187.974 34.8163 187.535 34.9949C187.098 35.1735 186.571 35.2628 185.953 35.2628C185.333 35.2628 184.792 35.1698 184.331 34.984C183.87 34.7982 183.512 34.5158 183.256 34.137C183 33.7581 182.869 33.279 182.861 32.6998H184.577C184.592 32.9387 184.656 33.1378 184.769 33.2971C184.883 33.4564 185.038 33.5771 185.236 33.6591C185.436 33.7412 185.668 33.7822 185.931 33.7822C186.172 33.7822 186.378 33.7496 186.547 33.6845C186.718 33.6193 186.849 33.5288 186.941 33.413C187.033 33.2971 187.08 33.1644 187.082 33.0148C187.08 32.8748 187.036 32.7553 186.952 32.6564C186.867 32.555 186.737 32.4682 186.561 32.3958C186.387 32.3209 186.165 32.2522 185.895 32.1894L185.12 32.0084C184.478 31.8612 183.973 31.6235 183.604 31.2953C183.234 30.9647 183.051 30.5182 183.053 29.9559C183.051 29.4974 183.174 29.0956 183.423 28.7505C183.671 28.4053 184.015 28.1363 184.454 27.9432C184.893 27.7501 185.394 27.6536 185.956 27.6536C186.531 27.6536 187.029 27.7513 187.452 27.9468C187.876 28.1399 188.206 28.4114 188.44 28.7613C188.674 29.1112 188.793 29.5167 188.798 29.9776H187.082Z" fill="#30396B"/>
<path d="M191.596 27.755V35.1686H189.804V27.755H191.596Z" fill="#30396B"/>
<path d="M12.5266 12.1517C6.16166 18.5231 0.955078 23.7658 0.955078 23.8017C0.955078 23.8793 24.0742 47 24.1518 47C24.1877 47 29.4361 41.7751 35.8249 35.3859L47.4382 23.7718L35.8249 12.1577C29.4361 5.76847 24.1877 0.549591 24.1518 0.555561C24.122 0.561535 18.8856 5.78041 12.5266 12.1517ZM33.347 14.6358L42.4824 23.7718L33.3768 32.8959C28.3673 37.9177 24.2295 42.0259 24.1817 42.0319C24.1339 42.0379 19.9782 37.9356 14.9567 32.9078L5.82132 23.7718L14.9567 14.6358C19.9782 9.60799 24.116 5.49976 24.1518 5.49976C24.1877 5.49976 28.3255 9.60799 33.347 14.6358Z" fill="#30396B"/>
<path d="M23.4013 8.70632C22.6251 9.50647 14.1763 18.0573 10.4147 21.8491C9.39965 22.8761 8.55179 23.73 8.53388 23.7479C8.50999 23.7778 10.8088 26.1006 10.8625 26.1006C10.8804 26.1006 13.8897 23.103 17.5499 19.4426C21.21 15.7823 24.2193 12.7847 24.2372 12.7847C24.2551 12.7847 27.2644 15.7823 30.9246 19.4426C34.5847 23.103 37.606 26.1006 37.6418 26.1006C37.7194 26.1006 40.0361 23.7837 40.0003 23.7479C39.9824 23.73 39.0151 22.7567 37.8508 21.5803C33.5398 17.2392 25.3179 8.91531 24.8343 8.40775C24.5597 8.12113 24.3029 7.88825 24.2671 7.88825C24.2313 7.88825 23.8372 8.25847 23.4013 8.70632Z" fill="#30396B"/>
<path d="M18.1635 21.5504C14.8557 24.8585 12.1449 27.5933 12.1509 27.6232C12.1509 27.659 12.7121 28.2442 13.3928 28.9249L14.6348 30.167L15.9364 28.9011C16.6469 28.2084 17.244 27.6531 17.2619 27.671C17.2799 27.6889 17.2918 28.8413 17.2858 30.2267V32.7585L18.9995 34.4722C19.9429 35.4217 20.725 36.192 20.731 36.192C20.7429 36.192 20.7489 33.487 20.7489 30.1789V24.1599L21.5371 23.3717C21.9729 22.9358 22.361 22.5775 22.4028 22.5775C22.4626 22.5775 22.4805 24.1121 22.4805 30.2744V37.9654L23.3522 38.8193L24.224 39.6672L24.5046 39.4105C24.6539 39.2672 25.0539 38.879 25.3942 38.5506L26.0033 37.9535V30.2685C26.0033 24.0046 26.0152 22.5775 26.0809 22.5775C26.1227 22.5775 26.5108 22.9358 26.9467 23.3717L27.7348 24.1718V30.1968V36.2218L29.4664 34.4842L31.2039 32.7525L31.1979 30.2147C31.1919 27.5277 31.1919 27.5635 31.4666 27.8501C31.5383 27.9218 32.0995 28.4771 32.7145 29.0802L33.8311 30.1789L35.0849 28.9309C35.7716 28.2442 36.3328 27.6531 36.3328 27.6172C36.3328 27.5515 24.3135 15.5732 24.224 15.5493C24.2001 15.5433 21.4714 18.2483 18.1635 21.5504Z" fill="#30396B"/>
</svg>
