<svg width="20" height="20" viewBox="0 0 20 20" fill="none" xmlns="http://www.w3.org/2000/svg">
<ellipse cx="10.0005" cy="10.0005" rx="9.99952" ry="9.99956" fill="white"/>
<path d="M19.4274 6.66577H13.2661C13.5338 8.80194 13.5353 11.1557 13.2713 13.2945H19.4405C19.8007 12.2627 19.9987 11.1546 19.9987 10C19.9988 8.83035 19.7963 7.70867 19.4274 6.66577Z" fill="#3757A6"/>
<path d="M13.2672 6.66577H19.4283C19.4274 6.66261 19.4264 6.65995 19.4252 6.65708C18.1455 3.04844 14.8533 0.393447 10.8979 0.0410156C12.4288 0.880062 12.8759 3.53839 13.2672 6.66577Z" fill="white"/>
<path d="M10.8984 19.9586C14.8609 19.6056 18.1576 16.9414 19.4324 13.3231C19.4358 13.3135 19.4386 13.304 19.442 13.2947H13.2727C12.8844 16.439 12.4354 19.1161 10.8984 19.9586Z" fill="#E73B36"/>
<path d="M0 10C0 11.1547 0.198318 12.2627 0.558137 13.2945H13.787C14.0513 11.1555 14.0494 8.80194 13.7821 6.66577H0.571437C0.202583 7.70871 0 8.83039 0 10Z" fill="#3757A6"/>
<path d="M0.573967 6.6571C0.573039 6.65993 0.572067 6.66263 0.570801 6.6658H13.7815C13.3899 3.53837 12.428 0.880086 10.8974 0.0410403C10.6013 0.0148201 10.302 0 9.99914 0C5.64901 -4.22225e-05 1.9497 2.77824 0.573967 6.6571Z" fill="white"/>
<path d="M13.7869 13.2947H0.558105C0.561441 13.304 0.564565 13.3135 0.567732 13.3231C1.93797 17.2119 5.64261 20 9.9997 20C10.3026 20 10.6019 19.9851 10.8979 19.9586C12.435 19.1161 13.3986 16.439 13.7869 13.2947Z" fill="#E73B36"/>
</svg>
